# xmcd
#
# Track frame offsets:
#	150
#	13775
#	23899
#	43764
#	54464
#	75675
#	97116
#	107368
#	135873
#	147410
#	159609
#
# Disc length: 2417 seconds
#
# Revision: 1
# Processed by: cddbd v1.5.2PL0 Copyright (c) Steve Scherf et al.
# Submitted via: EZCDAudioConverter 8.1.0.1
#
DISCID=89096f0b
DTITLE=Buddy Miller - Cayamo Sessions At Sea
DYEAR=2016
DGENRE=Country
TTITLE0=Buddy Miller Feat. Lee Ann Womack - After The Fire Is Gone
TTITLE1=Buddy Miller Feat. Kacey Musgraves - Love's Gonna Live Here
TTITLE2=Buddy Miller Feat. Kris Kristofferson - Sunday Morning Coming Down
TTITLE3=Buddy Miller Feat. Nikki Lane - Just Someone I Used To Know
TTITLE4=Buddy Miller Feat. Lucinda Williams - Hickory Wind
TTITLE5=Buddy Miller Feat. Richard Thompson - Wedding Bells
TTITLE6=Buddy Miller Feat. Elizabeth Cook - If Teardrops Were Pennies
TTITLE7=Buddy Miller Feat. Shawn Colvin - Wild Horses
TTITLE8=Buddy Miller Feat. Jill Andrews - Come Early Mornin'
TTITLE9=Buddy Miller Feat. Doug Seegers - Take The Hand Of Jesus
TTITLE10=Buddy Miller Feat. Brandi Carlile and The Lone Bellow - Angel From Mont
TTITLE10=gomery
EXTD=
EXTT0=
EXTT1=
EXTT2=
EXTT3=
EXTT4=
EXTT5=
EXTT6=
EXTT7=
EXTT8=
EXTT9=
EXTT10=
PLAYORDER=
